<svg xmlns="http://www.w3.org/2000/svg" viewBox="0 0 476.3 143.55"><defs><style>.cls-1{fill:#fff;}</style></defs><g id="Layer_2" data-name="Layer 2"><g id="Cover_Page" data-name="Cover Page"><path class="cls-1" d="M39,108.9c0,3.16.4,5.45,1.22,6.86a4.27,4.27,0,0,0,4,2.11,26.63,26.63,0,0,0,6.89-1.59v23.4q-11,3.87-18.67,3.87-24,0-24-34V26.39H0V1.76H39V108.9ZM52.8,26.39V1.76H92.44V107.31H61.83V26.39ZM192.85,1.76V26.39q-5.06,0-7,3.16t-2,10.91v66.85H153.21V44.51q0-13.36,5.66-18.12H138.21v6.68H111.42V1.76ZM248.1.35q20.36,0,32.14,9.41T292,44v63.33H261.41V43.45q0-9.68-4.21-13.9t-12-4.22a37.4,37.4,0,0,0-7.35.71v6.51H210.29V6.69Q230.65.34,248.1.35ZM210.29,51.9h27.55v55.41H210.29ZM389.82,82.68v24.63H305.19V82.68h45.45V43.28q0-10-2.91-14.34T339,24.63a29,29,0,0,0-6.28.88v7H305.19V6.69Q325.08,0,341,0q18.83,0,29.54,9.5T381.25,44v38.7ZM432.37.35q20.36,0,32.14,9.41T476.3,44v63.33H445.69V43.45q0-9.68-4.21-13.9t-12-4.22a37.22,37.22,0,0,0-7.34.71v6.51H394.57V6.69Q414.92.34,432.37.35ZM394.57,51.9h27.55v55.41H394.57Z"/></g></g></svg>